<?xml version="1.0" encoding="utf-8"?>
<!-- Generator: Adobe Illustrator 19.2.0, SVG Export Plug-In . SVG Version: 6.00 Build 0)  -->
<svg version="1.1" id="Layer_1" xmlns="http://www.w3.org/2000/svg" xmlns:xlink="http://www.w3.org/1999/xlink" x="0px" y="0px"
	 viewBox="0 0 955 181.1" style="enable-background:new 0 0 955 181.1;" xml:space="preserve">
<style type="text/css">
	.st0{clip-path:url(#SVGID_2_);}
	.st1{fill:#AAC5CC;stroke:#3C545F;stroke-width:4;stroke-linecap:round;stroke-linejoin:round;stroke-miterlimit:10;}
	.st2{fill:#576D75;stroke:#3C545F;stroke-width:4;stroke-linecap:round;stroke-linejoin:round;stroke-miterlimit:10;}
	.st3{fill:#FFFFFF;stroke:#3D555F;stroke-width:4;stroke-linecap:round;stroke-linejoin:round;stroke-miterlimit:10;}
	.st4{fill:#CDD5D4;}
	.st5{fill:#70C0A2;stroke:#3C545F;stroke-width:4;stroke-linecap:round;stroke-linejoin:round;stroke-miterlimit:10;}
	.st6{fill:none;stroke:#9AD4BD;stroke-width:4;stroke-linecap:round;stroke-linejoin:round;stroke-miterlimit:10;}
	.st7{fill:#FFFFFF;stroke:#3D555F;stroke-width:7;stroke-linecap:round;stroke-linejoin:round;stroke-miterlimit:10;}
	.st8{fill:#DFE5E5;}
	.st9{fill:none;stroke:#3D555F;stroke-width:4;stroke-linecap:round;stroke-linejoin:round;stroke-miterlimit:10;}
	.st10{fill:#3D555F;}
	.st11{fill:#E4E9E9;}
	.st12{fill:#EFC686;stroke:#3D555F;stroke-width:4;stroke-linecap:round;stroke-linejoin:round;stroke-miterlimit:10;}
	.st13{fill:#EFC686;}
	.st14{fill:#E88480;stroke:#3C545F;stroke-width:4;stroke-linecap:round;stroke-linejoin:round;stroke-miterlimit:10;}
	.st15{fill:none;stroke:#C5DADD;stroke-width:4;stroke-linecap:round;stroke-linejoin:round;stroke-miterlimit:10;}
	.st16{fill:#3C545F;}
	.st17{fill:#63C7C6;stroke:#3C545F;stroke-width:4;stroke-linecap:round;stroke-linejoin:round;stroke-miterlimit:10;}
	.st18{fill:#E9837E;stroke:#AF6362;stroke-width:4;stroke-linecap:round;stroke-linejoin:round;stroke-miterlimit:10;}
	.st19{fill:#CC7E7D;}
	.st20{fill:none;stroke:#AF6362;stroke-width:4;stroke-linecap:round;stroke-linejoin:round;stroke-miterlimit:10;}
	.st21{fill:none;stroke:#C09A67;stroke-width:4;stroke-linecap:round;stroke-linejoin:round;stroke-miterlimit:10;}
	.st22{fill:#F1EBE1;stroke:#3C545F;stroke-width:4;stroke-linecap:round;stroke-linejoin:round;stroke-miterlimit:10;}
	.st23{fill:#E5DFD3;}
	.st24{fill:#F9DCDB;}
	.st25{fill:none;stroke:#3D555F;stroke-width:2;stroke-linecap:round;stroke-linejoin:round;stroke-miterlimit:10;}
	.st26{fill:none;stroke:#3C545F;stroke-width:4;stroke-linecap:round;stroke-linejoin:round;stroke-miterlimit:10;}
	.st27{fill:#576D75;}
	.st28{fill:none;stroke:#9CA8D3;stroke-width:3;stroke-linecap:round;stroke-linejoin:round;stroke-miterlimit:10;}
	.st29{fill:#F1EBE1;stroke:#3C545F;stroke-width:3;stroke-linecap:round;stroke-linejoin:round;stroke-miterlimit:10;}
	.st30{fill:#E88480;stroke:#3C545F;stroke-width:3;stroke-linecap:round;stroke-linejoin:round;stroke-miterlimit:10;}
	.st31{fill:#838FC1;stroke:#3C545F;stroke-width:4;stroke-linecap:round;stroke-linejoin:round;stroke-miterlimit:10;}
	.st32{fill:#838FC1;stroke:#3C545F;stroke-width:3;stroke-linecap:round;stroke-linejoin:round;stroke-miterlimit:10;}
</style>
<g>
	<defs>
		<rect id="SVGID_1_" width="955" height="181.1"/>
	</defs>
	<clipPath id="SVGID_2_">
		<use xlink:href="#SVGID_1_"  style="overflow:visible;"/>
	</clipPath>
	<g class="st0">
		<path class="st1" d="M757.7,102.3c-1.9,2.9-9-18.5-6.9-33.6c5-14.7,31.9-34.2,64-37.2c41.8-3,65.3,16.9,73.4,23.9
			c2.6,2.2,4.2,19.6,5,22.9l-0.9,10.5c2.4,10.5-1.6,4.7-12.6,3.7c-28.3-2.7-72.6,12.3-112.7,25.4
			C757.1,121.1,758.9,112.4,757.7,102.3z"/>
		<polygon class="st2" points="880.8,385.7 826.2,385.7 780.3,385.7 780.3,364.6 880.8,364.6 		"/>
		<polygon class="st3" points="870.2,301.2 830.8,332.9 790.2,301.5 819.6,286.6 819.6,253.7 838.3,253.7 838.3,286.6 		"/>
		<path class="st4" d="M836.4,278.1c0,0-3.5,0.5-7.2,0.5c-3.7,0-7.7-0.5-7.7-0.5v-6.5h14.9V278.1z"/>
		<path class="st5" d="M891.3,319.7c-0.5-7.2-9-12.7-17.1-16.6c-8.1-3.9-20.8-9.4-20.8-9.4s-8.8,16.4-24.2,16.4
			c-16.9,0-22.5-17-22.5-17s-12.4,6-20.5,9.9c-8.1,3.9-16.6,9.3-17.1,16.6c-0.5,7.2,0,28.3,0,28.3h26.3v16.6h34.8H865V348h26.3
			C891.3,348,891.8,326.9,891.3,319.7z"/>
		<line class="st2" x1="795.3" y1="323.9" x2="795.3" y2="348"/>
		<line class="st2" x1="865.1" y1="323.9" x2="865.1" y2="348"/>
		<polygon class="st2" points="800.7,385.7 808.3,389.3 808.3,427.2 782.1,427.2 782.1,385.7 		"/>
		<polygon class="st2" points="857.1,385.7 849.4,389.3 849.4,427.2 875.6,427.2 875.6,385.7 		"/>
		<path class="st6" d="M784.3,312.6c0,0-7.5,1.7-7.5,9.8"/>
		<path class="st6" d="M875.8,312.6c0,0,7.5,1.7,7.5,9.8"/>
		<path class="st3" d="M797.1,397.4"/>
		<g>
			<path class="st3" d="M794,380.8c-1.1-0.7,0.8-32.8,0.8-32.8h-24.2l1.6,32.5c0,0-6,5.8-6.1,10.3c-0.1,3.3,1.5,7,3.7,9.4
				c3.9,4.3,23,4.2,24.5-1.2c0,0-2.6,2.9,2.8,5.6c8.4,2,5-12.8,3.3-15.8C798.8,386.1,799.7,386.3,794,380.8z"/>
			<path class="st7" d="M793.2,402.1"/>
			<path class="st7" d="M789,394.6"/>
			<path class="st3" d="M797.1,397.4"/>
			<path class="st3" d="M793.2,391.5c0,0.2,3.3,4.9,0.5,9.4"/>
			<line class="st3" x1="786.5" y1="401.5" x2="786.1" y2="399.1"/>
			<line class="st3" x1="777.1" y1="401.5" x2="776.8" y2="399.1"/>
		</g>
		<g>
			<path class="st3" d="M866,380.8c1.1-0.7-0.8-32.8-0.8-32.8h24.2l-1.6,32.5c0,0,6,5.8,6.1,10.3c0.1,3.3-1.5,7-3.7,9.4
				c-3.9,4.3-23,4.2-24.5-1.2c0,0,2.6,2.9-2.8,5.6c-8.4,2-5-12.8-3.3-15.8C861.2,386.1,860.3,386.3,866,380.8z"/>
			<path class="st7" d="M866.9,402.1"/>
			<path class="st7" d="M871,394.6"/>
			<path class="st3" d="M863,397.4"/>
			<path class="st3" d="M866.9,391.5c0,0.2-3.3,4.9-0.5,9.4"/>
			<line class="st3" x1="873.6" y1="401.5" x2="874" y2="399.1"/>
			<line class="st3" x1="882.9" y1="401.5" x2="883.3" y2="399.1"/>
		</g>
		<path class="st7" d="M793.1,402.1"/>
		<path class="st7" d="M789,394.6"/>
		<path class="st3" d="M797,397.4"/>
		<path class="st3" d="M796.5,402.1"/>
		<path class="st3" d="M794.1,393.3"/>
		<polygon class="st4" points="772.4,349.8 793.1,349.8 792.7,355.3 772.8,355.3 		"/>
		<polygon class="st4" points="887.7,349.8 867,349.8 867.4,355.3 887.3,355.3 		"/>
		<path class="st2" d="M755,445.7h53.3v-18.5H772c-9.3,0-17,7.6-17,17V445.7z"/>
		<path class="st3" d="M775.9,427.2c0,0,2,9.2,12.7,9.2s19.8,0,19.8,0v-9.2H775.9z"/>
		<path class="st4" d="M778.5,428.9h28v4.1C806.5,433.1,793.7,433.2,778.5,428.9z"/>
		<path class="st2" d="M902.8,445.7h-53.3v-18.5h36.3c9.3,0,17,7.6,17,17V445.7z"/>
		<path class="st3" d="M881.9,427.2c0,0-2,9.2-12.7,9.2s-19.8,0-19.8,0v-9.2H881.9z"/>
		<path class="st4" d="M879.2,428.9h-28v4.1C851.2,433.1,864.1,433.2,879.2,428.9z"/>
		<path class="st8" d="M872.3,358.5L872.3,358.5c-0.6,0-1,0.5-1,1v3.5c0,0.6,0.5,1,1,1l0,0c0.6,0,1-0.5,1-1v-3.5
			C873.3,358.9,872.8,358.5,872.3,358.5z"/>
		<path class="st8" d="M882.7,358.5L882.7,358.5c-0.6,0-1,0.5-1,1v3.5c0,0.6,0.5,1,1,1l0,0c0.6,0,1-0.5,1-1v-3.5
			C883.7,358.9,883.2,358.5,882.7,358.5z"/>
		<path class="st8" d="M877.8,363.1L877.8,363.1c-0.6,0-1,0.5-1,1v3.5c0,0.6,0.5,1,1,1l0,0c0.6,0,1-0.5,1-1v-3.5
			C878.8,363.6,878.3,363.1,877.8,363.1z"/>
		<path class="st8" d="M872.3,370.1L872.3,370.1c-0.6,0-1,0.5-1,1v3.5c0,0.6,0.5,1,1,1l0,0c0.6,0,1-0.5,1-1v-3.5
			C873.3,370.5,872.8,370.1,872.3,370.1z"/>
		<path class="st8" d="M882.7,370.1L882.7,370.1c-0.6,0-1,0.5-1,1v3.5c0,0.6,0.5,1,1,1l0,0c0.6,0,1-0.5,1-1v-3.5
			C883.7,370.5,883.2,370.1,882.7,370.1z"/>
		<path class="st8" d="M877.8,374.7L877.8,374.7c-0.6,0-1,0.5-1,1v3.5c0,0.6,0.5,1,1,1l0,0c0.6,0,1-0.5,1-1v-3.5
			C878.8,375.1,878.3,374.7,877.8,374.7z"/>
		<path class="st8" d="M777.6,358.5L777.6,358.5c-0.6,0-1,0.5-1,1v3.5c0,0.6,0.5,1,1,1l0,0c0.6,0,1-0.5,1-1v-3.5
			C778.6,358.9,778.2,358.5,777.6,358.5z"/>
		<path class="st8" d="M788,358.5L788,358.5c-0.6,0-1,0.5-1,1v3.5c0,0.6,0.5,1,1,1l0,0c0.6,0,1-0.5,1-1v-3.5
			C789,358.9,788.6,358.5,788,358.5z"/>
		<path class="st8" d="M783.1,363.1L783.1,363.1c-0.6,0-1,0.5-1,1v3.5c0,0.6,0.5,1,1,1l0,0c0.6,0,1-0.5,1-1v-3.5
			C784.1,363.6,783.6,363.1,783.1,363.1z"/>
		<path class="st8" d="M777.6,370.1L777.6,370.1c-0.6,0-1,0.5-1,1v3.5c0,0.6,0.5,1,1,1l0,0c0.6,0,1-0.5,1-1v-3.5
			C778.6,370.5,778.2,370.1,777.6,370.1z"/>
		<path class="st8" d="M788,370.1L788,370.1c-0.6,0-1,0.5-1,1v3.5c0,0.6,0.5,1,1,1l0,0c0.6,0,1-0.5,1-1v-3.5
			C789,370.5,788.6,370.1,788,370.1z"/>
		<path class="st8" d="M783.1,374.7L783.1,374.7c-0.6,0-1,0.5-1,1v3.5c0,0.6,0.5,1,1,1l0,0c0.6,0,1-0.5,1-1v-3.5
			C784.1,375.1,783.6,374.7,783.1,374.7z"/>
		<path class="st8" d="M829.2,300.7L829.2,300.7c-0.6,0-1,0.5-1,1v3.5c0,0.6,0.5,1,1,1l0,0c0.6,0,1-0.5,1-1v-3.5
			C830.2,301.1,829.8,300.7,829.2,300.7z"/>
		<path class="st8" d="M822.6,295.6L822.6,295.6c-0.6,0-1,0.5-1,1v3.5c0,0.6,0.5,1,1,1l0,0c0.6,0,1-0.5,1-1v-3.5
			C823.6,296.1,823.1,295.6,822.6,295.6z"/>
		<path class="st8" d="M836.1,295.6L836.1,295.6c-0.6,0-1,0.5-1,1v3.5c0,0.6,0.5,1,1,1l0,0c0.6,0,1-0.5,1-1v-3.5
			C837.1,296.1,836.7,295.6,836.1,295.6z"/>
		<path class="st3" d="M741.2,174.9c0,52.4,39.2,95.2,87.5,95.2s87.5-40.1,87.5-95.2c0-39.9-0.3-99.4-49.1-99.4
			c-32.9-1.5-39.3-0.1-39.3-0.1s-7.5,6.8-43.1,10.4C748.2,89.5,741.2,134.9,741.2,174.9z"/>
		<path class="st9" d="M820.5,188.5c0,0,1.3,5.9,9.6,5.9c8.4,0,8.8-5.9,8.8-5.9"/>
		<line class="st9" x1="829.7" y1="158.3" x2="829.7" y2="185.4"/>
		<path class="st9" d="M798.7,170c0,0,2.7-12.6-8.3-12.6c-10.3,0-7.6,12.6-7.6,12.6"/>
		<circle class="st10" cx="790.6" cy="160.6" r="4.4"/>
		<path class="st9" d="M876.8,170c0,0,2.7-12.6-8.3-12.6c-10.3,0-7.6,12.6-7.6,12.6"/>
		<path class="st11" d="M828.9,125.2c-56.2,9.4-85.8,45.8-85.8,45.8l2.1-50.5c1.4-18.9,23.2-51.2,78.5-53.5
			C890,64.3,905.7,83,908.3,103l3.2,23.8C911.5,126.7,890.5,118.2,828.9,125.2z"/>
		<circle class="st10" cx="868.8" cy="160.6" r="4.4"/>
		<path class="st9" d="M890.7,142.6c0,0-13-16.4-24.6-10.3"/>
		<path class="st9" d="M771.1,147.4c0,0,6.6-12.1,21-6.4"/>
		<path class="st11" d="M752.5,217.4c0,0,12.7,27.5,40,41.5c32.5,16.7,60.1,7.6,77.3-2c17.2-9.5,30.4-24.9,35.5-39.6
			c0,0-26.5,43.1-75,43.1S752.5,217.4,752.5,217.4z"/>
		<path class="st8" d="M796.2,242.8L796.2,242.8c-0.6,0-1,0.5-1,1v9c0,0.6,0.5,1,1,1l0,0c0.6,0,1-0.5,1-1v-9
			C797.2,243.3,796.7,242.8,796.2,242.8z"/>
		<path class="st8" d="M803,251.1L803,251.1c-0.6,0-1,0.5-1,1v9c0,0.6,0.5,1,1,1l0,0c0.6,0,1-0.5,1-1v-9
			C804,251.6,803.6,251.1,803,251.1z"/>
		<path class="st8" d="M809.9,243L809.9,243c-0.6,0-1,0.5-1,1v9c0,0.6,0.5,1,1,1l0,0c0.6,0,1-0.5,1-1v-9
			C810.9,243.5,810.5,243,809.9,243z"/>
		<path class="st8" d="M814.5,254.1L814.5,254.1c-0.6,0-1,0.5-1,1v9c0,0.6,0.5,1,1,1l0,0c0.6,0,1-0.5,1-1v-9
			C815.6,254.6,815.1,254.1,814.5,254.1z"/>
		<path class="st8" d="M828.9,254.1L828.9,254.1c-0.6,0-1,0.5-1,1v9c0,0.6,0.5,1,1,1l0,0c0.6,0,1-0.5,1-1v-9
			C829.9,254.6,829.5,254.1,828.9,254.1z"/>
		<path class="st8" d="M841.2,254.1L841.2,254.1c-0.6,0-1,0.5-1,1v9c0,0.6,0.5,1,1,1l0,0c0.6,0,1-0.5,1-1v-9
			C842.2,254.6,841.7,254.1,841.2,254.1z"/>
		<path class="st8" d="M819.9,247.2L819.9,247.2c-0.6,0-1,0.5-1,1v9c0,0.6,0.5,1,1,1l0,0c0.6,0,1-0.5,1-1v-9
			C820.9,247.7,820.5,247.2,819.9,247.2z"/>
		<path class="st8" d="M860.1,242.8L860.1,242.8c0.6,0,1,0.5,1,1v9c0,0.6-0.5,1-1,1l0,0c-0.6,0-1-0.5-1-1v-9
			C859,243.3,859.5,242.8,860.1,242.8z"/>
		<path class="st8" d="M853.2,251.1L853.2,251.1c0.6,0,1,0.5,1,1v9c0,0.6-0.5,1-1,1l0,0c-0.6,0-1-0.5-1-1v-9
			C852.2,251.6,852.7,251.1,853.2,251.1z"/>
		<path class="st8" d="M846.3,243L846.3,243c0.6,0,1,0.5,1,1v9c0,0.6-0.5,1-1,1l0,0c-0.6,0-1-0.5-1-1v-9
			C845.3,243.5,845.8,243,846.3,243z"/>
		<path class="st8" d="M835.7,247.2L835.7,247.2c0.6,0,1,0.5,1,1v9c0,0.6-0.5,1-1,1l0,0c-0.6,0-1-0.5-1-1v-9
			C834.6,247.7,835.1,247.2,835.7,247.2z"/>
		<path class="st12" d="M871,152.9"/>
		<circle class="st3" cx="818.1" cy="68.9" r="21.1"/>
		<path class="st13" d="M789.3,102.8l8,12.6c0.5,0.8,1.8,0.4,1.7-0.6c-0.3-3.9,0.1-9.5,4.1-15"/>
		<path class="st13" d="M798.5,101.5l8,12.6c0.5,0.8,1.8,0.4,1.7-0.6c-0.3-3.9,0.1-9.5,4.1-15"/>
		<path class="st13" d="M805.4,97.7l8,12.6c0.5,0.8,1.8,0.4,1.7-0.6c-0.3-3.9,0.1-9.5,4.1-15"/>
		<path class="st13" d="M814.6,101.5l8,12.6c0.5,0.8,1.8,0.4,1.7-0.6c-0.3-3.9,0.1-9.5,4.1-15"/>
		<path class="st13" d="M832.8,96.1l5.3,13.9c0.3,0.9,1.7,0.7,1.8-0.2c0.4-3.8,2-9.3,7-13.9"/>
		<path class="st13" d="M826.4,92.9l5.3,13.9c0.3,0.9,1.7,0.7,1.8-0.2c0.4-3.8,2-9.3,7-13.9"/>
		<path class="st13" d="M840.3,93.3l5.3,13.9c0.3,0.9,1.7,0.7,1.8-0.2c0.4-3.8,2-9.3,7-13.9"/>
		<path class="st2" d="M816.7,101.1c-57.5,10-73.8,48.4-73.8,48.4l-6.5-18.3c-4.8-13.5-2-28.9,7.5-39.1
			c11.9-12.7,34.8-23.4,76.7-25.6c67.4-3.5,85.6,6.4,91.6,18c6.6,12.9,0.2,37.4,0.2,37.4S879.8,93.7,816.7,101.1z"/>
		<path class="st9" d="M839.5,246c0,0-1.3-5.9-9.6-5.9c-8.4,0-8.8,5.9-8.8,5.9"/>
		<path class="st9" d="M800.1,217.3c0,0,5.4,5.9,20.7,5.9c8.8,0,8.8,0,8.8,0h8.1"/>
	</g>
	<g class="st0">
		<polygon class="st14" points="179.7,427.4 124.9,427.4 78.9,427.4 78.9,406.2 179.7,406.2 		"/>
		<polygon class="st3" points="169.1,342.7 129.5,374.5 88.8,343 118.3,328.1 118.3,295.1 137,295.1 137,328.1 		"/>
		<path class="st4" d="M135.2,319.6c0,0-3.5,0.5-7.2,0.5c-3.7,0-7.7-0.5-7.7-0.5v-6.5h14.9V319.6z"/>
		<path class="st1" d="M190.2,361.2c-0.5-7.2-9-12.7-17.1-16.6c-8.1-3.9-20.9-9.4-20.9-9.4L127.9,359l-22.6-24.4c0,0-12.4,6-20.5,10
			c-8.1,3.9-16.6,9.4-17.1,16.6s0,28.4,0,28.4H94v16.6h34.9h34.9v-16.6h26.3C190.2,389.6,190.7,368.5,190.2,361.2z"/>
		<line class="st2" x1="93.9" y1="365.5" x2="93.9" y2="389.6"/>
		<line class="st2" x1="163.9" y1="365.5" x2="163.9" y2="389.6"/>
		<polygon class="st14" points="99.3,427.4 107,431 107,469 80.8,469 80.8,427.4 		"/>
		<polygon class="st14" points="155.9,427.4 148.2,431 148.2,469 174.5,469 174.5,427.4 		"/>
		<path class="st15" d="M83,354.1c0,0-7.6,1.7-7.5,9.8"/>
		<path class="st15" d="M174.7,354.1c0,0,7.6,1.7,7.5,9.8"/>
		<path class="st3" d="M95.7,439.1"/>
		<g>
			<path class="st3" d="M92.7,422.5c-1.1-0.7,0.8-32.9,0.8-32.9H69.3l1.6,32.6c0,0-6,5.8-6.1,10.4c-0.1,3.3,1.5,7,3.7,9.5
				c3.9,4.3,23,4.2,24.5-1.2c0,0-2.6,2.9,2.8,5.6c8.4,2,5-12.8,3.3-15.8C97.5,427.8,98.4,428,92.7,422.5z"/>
			<path class="st3" d="M91.9,443.9"/>
			<path class="st3" d="M87.7,436.4"/>
			<path class="st3" d="M95.8,439.1"/>
			<path class="st3" d="M91.9,433.2c0,0.2,3.3,4.9,0.5,9.4"/>
			<line class="st3" x1="85.1" y1="443.3" x2="84.8" y2="440.9"/>
			<line class="st3" x1="75.7" y1="443.3" x2="75.4" y2="440.9"/>
		</g>
		<g>
			<path class="st3" d="M164.8,422.5c1.1-0.7-0.8-32.9-0.8-32.9h24.2l-1.6,32.6c0,0,6,5.8,6.1,10.4c0.1,3.3-1.5,7-3.7,9.5
				c-3.9,4.3-23,4.2-24.5-1.2c0,0,2.6,2.9-2.8,5.6c-8.4,2-5-12.8-3.3-15.8C160,427.8,159.1,428,164.8,422.5z"/>
			<path class="st3" d="M165.7,443.9"/>
			<path class="st3" d="M169.9,436.4"/>
			<path class="st3" d="M161.8,439.1"/>
			<path class="st3" d="M165.7,433.2c0,0.2-3.3,4.9-0.5,9.4"/>
			<line class="st3" x1="172.4" y1="443.3" x2="172.8" y2="440.9"/>
			<line class="st3" x1="181.8" y1="443.3" x2="182.1" y2="440.9"/>
		</g>
		<path class="st3" d="M91.8,443.9"/>
		<path class="st3" d="M87.6,436.4"/>
		<path class="st3" d="M95.7,439.1"/>
		<path class="st3" d="M95.1,443.9"/>
		<path class="st3" d="M92.8,435"/>
		<polygon class="st4" points="71,391.4 91.8,391.4 91.3,396.9 71.4,396.9 		"/>
		<polygon class="st4" points="186.5,391.4 165.8,391.4 166.2,396.9 186.2,396.9 		"/>
		<path class="st2" d="M53.6,487.6H107V469H70.6c-9.3,0-17,7.6-17,17V487.6z"/>
		<path class="st3" d="M74.5,469c0,0,2,9.3,12.7,9.3s19.9,0,19.9,0V469H74.5z"/>
		<path class="st4" d="M77.2,470.7h28.1v4.2C105.2,474.9,92.3,475,77.2,470.7z"/>
		<path class="st2" d="M201.6,487.6h-53.4V469h36.5c9.3,0,17,7.6,17,17V487.6z"/>
		<path class="st3" d="M180.7,469c0,0-2,9.3-12.7,9.3c-10.7,0-19.9,0-19.9,0V469H180.7z"/>
		<path class="st4" d="M178.1,470.7H150v4.2C150,474.9,162.9,475,178.1,470.7z"/>
		<path class="st8" d="M171.1,400.1L171.1,400.1c-0.6,0-1,0.5-1,1v3.5c0,0.6,0.5,1,1,1h0c0.6,0,1-0.5,1-1v-3.5
			C172.1,400.6,171.7,400.1,171.1,400.1z"/>
		<path class="st8" d="M181.5,400.1L181.5,400.1c-0.6,0-1,0.5-1,1v3.5c0,0.6,0.5,1,1,1h0c0.6,0,1-0.5,1-1v-3.5
			C182.5,400.6,182.1,400.1,181.5,400.1z"/>
		<path class="st8" d="M176.6,404.7L176.6,404.7c-0.6,0-1,0.5-1,1v3.5c0,0.6,0.5,1,1,1h0c0.6,0,1-0.5,1-1v-3.5
			C177.6,405.2,177.2,404.7,176.6,404.7z"/>
		<path class="st8" d="M171.1,411.7L171.1,411.7c-0.6,0-1,0.5-1,1v3.5c0,0.6,0.5,1,1,1h0c0.6,0,1-0.5,1-1v-3.5
			C172.1,412.2,171.7,411.7,171.1,411.7z"/>
		<path class="st8" d="M181.5,411.7L181.5,411.7c-0.6,0-1,0.5-1,1v3.5c0,0.6,0.5,1,1,1h0c0.6,0,1-0.5,1-1v-3.5
			C182.5,412.2,182.1,411.7,181.5,411.7z"/>
		<path class="st8" d="M176.6,416.3L176.6,416.3c-0.6,0-1,0.5-1,1v3.5c0,0.6,0.5,1,1,1h0c0.6,0,1-0.5,1-1v-3.5
			C177.6,416.8,177.2,416.3,176.6,416.3z"/>
		<path class="st8" d="M76.2,400.1L76.2,400.1c-0.6,0-1,0.5-1,1v3.5c0,0.6,0.5,1,1,1h0c0.6,0,1-0.5,1-1v-3.5
			C77.2,400.6,76.8,400.1,76.2,400.1z"/>
		<path class="st8" d="M86.6,400.1L86.6,400.1c-0.6,0-1,0.5-1,1v3.5c0,0.6,0.5,1,1,1h0c0.6,0,1-0.5,1-1v-3.5
			C87.7,400.6,87.2,400.1,86.6,400.1z"/>
		<path class="st8" d="M81.7,404.7L81.7,404.7c-0.6,0-1,0.5-1,1v3.5c0,0.6,0.5,1,1,1h0c0.6,0,1-0.5,1-1v-3.5
			C82.7,405.2,82.3,404.7,81.7,404.7z"/>
		<path class="st8" d="M76.2,411.7L76.2,411.7c-0.6,0-1,0.5-1,1v3.5c0,0.6,0.5,1,1,1h0c0.6,0,1-0.5,1-1v-3.5
			C77.2,412.2,76.8,411.7,76.2,411.7z"/>
		<path class="st8" d="M86.6,411.7L86.6,411.7c-0.6,0-1,0.5-1,1v3.5c0,0.6,0.5,1,1,1h0c0.6,0,1-0.5,1-1v-3.5
			C87.7,412.2,87.2,411.7,86.6,411.7z"/>
		<path class="st8" d="M81.7,416.3L81.7,416.3c-0.6,0-1,0.5-1,1v3.5c0,0.6,0.5,1,1,1h0c0.6,0,1-0.5,1-1v-3.5
			C82.7,416.8,82.3,416.3,81.7,416.3z"/>
		<path class="st8" d="M127.9,342.2L127.9,342.2c-0.6,0-1,0.5-1,1v3.5c0,0.6,0.5,1,1,1h0c0.6,0,1-0.5,1-1v-3.5
			C129,342.6,128.5,342.2,127.9,342.2z"/>
		<path class="st8" d="M121.3,337.1L121.3,337.1c-0.6,0-1,0.5-1,1v3.5c0,0.6,0.5,1,1,1h0c0.6,0,1-0.5,1-1v-3.5
			C122.3,337.6,121.8,337.1,121.3,337.1z"/>
		<path class="st8" d="M134.9,337.1L134.9,337.1c-0.6,0-1,0.5-1,1v3.5c0,0.6,0.5,1,1,1h0c0.6,0,1-0.5,1-1v-3.5
			C135.9,337.6,135.4,337.1,134.9,337.1z"/>
		<polygon class="st14" points="124.5,406.2 132.2,406.2 132.2,421.9 124.4,426.9 		"/>
		<circle class="st16" cx="128.3" cy="411.7" r="1.4"/>
		<path class="st17" d="M154.6,407.5c0,0,3.5,5.6,10.6,5.6"/>
		<path class="st17" d="M103.3,407.5c0,0-3.5,5.6-10.6,5.6"/>
		<path class="st12" d="M53.7,122c0,0-5.8-7.5-12.5,3.2s-2.6,68.6-2.6,68.6L53.7,122z"/>
		<path class="st12" d="M193.5,108.1c0,0,10-4.6,16.5,6c8.3,13.5,6.3,80.2,4.1,79.7L193.5,108.1z"/>
		<path class="st12" d="M190.5,115c0,0,19.9-37.9-6.6-51.6s-93.5-13-113.6-7.1C56.5,60.4,40.7,66,44.1,89.8
			c3.3,22.9,9.6,32.3,9.6,32.3L190.5,115z"/>
		<path class="st3" d="M38.6,198.9c0,40,39.3,72.4,87.7,72.4s87.7-32.4,87.7-72.4s-0.3-99.6-49.2-99.6c-33-1.5-38.5,22.9-38.5,22.9
			s-8.3-16.1-44.1-12.5C45.6,113.3,38.6,158.9,38.6,198.9z"/>
		<path class="st4" d="M96.6,236.3c0,0,19.4,2,32.3-6.4c0,0,11.3,6.5,28.9,6.6l6.3-9.8l-35.2-11.3l-40.2,13.8L96.6,236.3z"/>
		<path class="st18" d="M128.3,247c6,11.1,20.1,5.2,20.1,5.2c16.6-36.9,65.6-58.3,65.6-58.3s0,5.4,0,45.4s-39,72.4-87.3,72.4l0,0
			c-48.3,0-88.1-32.4-88.1-72.4s0-45.4,0-45.4s49,21.4,65.6,58.3C104.2,252.2,122.3,258.1,128.3,247"/>
		<path class="st9" d="M214,193.9c0,0,0,5.4,0,45.4s-39,72.4-87.3,72.4l0,0c-48.3,0-88.1-32.4-88.1-72.4s0-45.4,0-45.4"/>
		<path class="st9" d="M96.6,168.3c0,0,2.7-12.6-8.3-12.6c-10.3,0-7.6,12.6-7.6,12.6"/>
		<circle class="st10" cx="88.5" cy="160.1" r="4.4"/>
		<path class="st9" d="M174.9,168.3c0,0,2.7-12.6-8.3-12.6c-10.3,0-7.6,12.6-7.6,12.6"/>
		<circle class="st10" cx="166.8" cy="160.1" r="4.4"/>
		<path class="st9" d="M119.7,189.9c0,0,1.3,5.9,9.7,5.9s8.8-5.9,8.8-5.9"/>
		<path class="st9" d="M118.7,239.3c0,0,1.4,5.9,10.7,5.9s9.8-5.9,9.8-5.9"/>
		<line class="st9" x1="128.9" y1="156.7" x2="128.9" y2="183.9"/>
		<path class="st9" d="M61.5,148.1c0,0,6.2-10.2,17.5-13.3"/>
		<path class="st9" d="M189.9,141.5c0,0-6.2-10.2-17.5-13.3"/>
		<path class="st19" d="M102.5,253.4c0,0-9.9-23.7-36.5-41.2l-5.3,9.4C60.7,221.6,91.6,241.2,102.5,253.4z"/>
		<path class="st19" d="M150.2,253.4c0,0,9.9-23.7,36.5-41.2l5.3,9.4C191.9,221.6,161,241.2,150.2,253.4z"/>
		<path class="st18" d="M128.8,206.3c0,0-36.5-17.7-69.6,11.2c0,0,14.9,12.5,39.2,12.5S137.6,218.7,128.8,206.3z"/>
		<path class="st18" d="M130.6,206.3c0,0,36.5-17.7,69.6,11.2c0,0-14.9,12.5-39.2,12.5S121.8,218.7,130.6,206.3z"/>
		<path class="st20" d="M95.3,210.6c0,0-13.7,1-20.1,6.2"/>
		<path class="st20" d="M105.7,210.6c0,0,9.5-1.2,14,1.6"/>
		<path class="st20" d="M163.8,210.6c0,0,13.7,1,20.1,6.2"/>
		<path class="st20" d="M153.4,210.6c0,0-9.5-1.2-14,1.6"/>
		<path class="st20" d="M124.5,261.8c0,0-1.1,11.4-9.2,19.2"/>
		<path class="st20" d="M112.7,261.8c0,0-7.5,16.2-16.1,20.3"/>
		<path class="st20" d="M131.5,261.8c0,0,1.1,11.4,9.2,19.2"/>
		<path class="st20" d="M143.4,261.8c0,0,7.5,16.2,16.1,20.3"/>
		<path class="st20" d="M203.3,232.8c0,0-0.4,21.6-7.6,29"/>
		<path class="st20" d="M190.5,238.3c0,0,0,17-10.8,26.5"/>
		<path class="st20" d="M48.9,232.8c0,0,0.4,21.6,7.6,29"/>
		<path class="st20" d="M61.8,238.3c0,0,0,17,10.8,26.5"/>
		<path class="st19" d="M44.9,260.3c0,0,6.7,24.9,40.3,40.4c33.6,15.5,67.2,7.9,85.8-1.7s31.6-24,37.1-38.7c0,0-26.8,39-79.3,39
			S44.9,260.3,44.9,260.3z"/>
		<path class="st21" d="M96.8,95.1c0,0-22.7-4.9-35.2-20.7"/>
		<path class="st21" d="M127.6,95.3c0,0-9.7-13.2-29.8-14.1"/>
		<path class="st21" d="M146.8,93.3c0,0-6.6-15-26-20.3"/>
		<path class="st21" d="M171.7,88.2c0,0-6.6-15-26-20.3"/>
		<path class="st21" d="M86,76.1c-5.4-3-6.6-5.8-8.8-10"/>
		<path class="st21" d="M109.8,70.3c-5.8-2.1-7.5-4.7-10.3-8.5"/>
		<path class="st21" d="M69.6,101.1c-4.1-1.7-11.4-6.2-15.7-10.1"/>
		<path class="st11" d="M44.9,151.8c0,0,6.1-23.6,16.9-32c12.8-9.9,26.7-8.6,35.6-8.6S120,116,124.6,123c0,0-27.8-13.4-49.8-1.7
			S44.9,151.8,44.9,151.8z"/>
		<path class="st21" d="M107.9,99.3c0,0,14.8,2.9,15.9,9.5"/>
		<path class="st21" d="M177.2,75.7c0,0,12.4,8.5,10.8,15"/>
		<path class="st11" d="M128.5,122c0,0,4.7-18.4,28.3-20.6s36,7.3,42.5,18.3c0,0-20.2-16.9-41.4-12.9S128.5,122,128.5,122z"/>
	</g>
	<g class="st0">
		<path class="st2" d="M366.3,319c0,0,13.6,38.3,31.8,34.3c18.2-4,15.3-16.5,26.2-5.7c10.9,10.8,16.2,24.5,29.5,16.6
			c13.2-7.9,6-20.9,18-10.9c11.9,10,11.8,17,21,10c9.1-7,9.1-20.9,24.7-15.7c15.5,5.2,1,18.5,15.1,14.9s18.5-20.2,29.5-19.4
			s23.9,16,23.9-0.3c0-16.4-28.3-131.4-28.3-131.4l-177.7,7.9L366.3,319z"/>
		<polygon class="st2" points="465.8,386.6 471.1,390.9 471.1,424.3 452.9,424.3 452.9,386.6 		"/>
		<polygon class="st2" points="498.3,386.6 493,390.9 493,424.3 511.2,424.3 511.2,386.6 		"/>
		<path class="st2" d="M512.5,373.1H482h-30.4c-1.4,0.5-8.2,9.8,1.3,16.4H482h29.2C520.7,383,513.9,373.6,512.5,373.1z"/>
		<path class="st22" d="M511.6,284.8l-11.2-2.6c-4.9-1.3-5.8-7.6-5.8-12.7v-39.9H482h-12.6v39.9c0,5-0.9,11.4-5.8,12.7l-11.2,2.6
			c0,0-6.7,17,5.8,20.7c11.3,3.4,23.8-4.9,23.8-4.9s12.5,8.2,23.8,4.9C518.3,301.8,511.6,284.8,511.6,284.8z"/>
		<path class="st2" d="M541.3,243.2c-10.2-4.2,0.8-15.8,0.8-15.8c16.2-34.3,7.8-67.8,7.8-67.8c6.1,2.6,10,3.5,10,3.5
			s-13.5-8.3-16.1-16.1s-4.6-11-11.2-13.2c-6.6-2.2-12.7-4.9-16.3-9.7c-3.6-4.9-7.4-7.1-15-8c-7.6-0.9-8.1-3.5-12.9-10.2
			s-14.7-1.9-19.3-5.7s-16.4-5.9-22-5.4c-5.7,0.4-16.5-2.7-19.5-8.9c-3-6.2-1.9-17.7,8.6-20.8c10.5-3.1,10.5-5.3,12.1-7.5
			c1.6-2.2,6-7.1,13.5-7.1c7.5,0,12.8,0.9,15.9-2.2s5.8-2.7,10.2,0c4.4,2.7,14.1,7.5,17.2,5.8c3.1-1.8,9.8-6.6,20-2.7
			c10.2,4,5.8,13.3,9.3,15.1c3.5,1.8,10.6-8,16.4-3.5c5.8,4.4,3.5,14.6,9,22.2s13.1-8.4,19.8-2.7c6.6,5.8-3.1,14.6,0,23
			c3.1,8.4,16.4,8.9,19.9,17.3c3.5,8.4-8.4,10-6.2,20.1c2.2,10,14.6,7.3,14.6,15.5c0,8.2-11.1,6-10.2,14.2
			c0.9,8.2,14.6,9.1,14.6,19.7c0,10.6-17.7,5.3-15.5,14.8c2.2,9.5,15.9,4.7,15.5,14.2c-0.4,9.5-10.6,6.8-10.6,17s14.2,7.7,14.2,14.7
			c0,7-9.3,4.6-9.3,14.9s9.7,12,9.3,20.2c-0.4,8.2-13.3-2.4-15.1,6.9c-1.8,9.3,5.3,12.9,5.3,18.9s-9.3-2-15.5,3.7
			c-6.2,5.8-0.4,13.7-6.6,14.2s-17.3-1.3-18.2-10.2s-1.3-16.9-7.1-20.4c-5.8-3.5-8.9,7.1-14.6,0.4c-5.8-6.6,6.6-11.1,5.3-19.5
			c-1.3-8.4-10.6-1.7-10.6-10.2c0-8.5,9.3-4,10.2-9.8s-7.1-7.1-7.8-11.5C540.7,246.4,551.5,247.4,541.3,243.2z"/>
		<path class="st23" d="M492.7,270.9c0,0-5,0.5-10.3,0.5c-5.3,0-10.9-0.5-10.9-0.5v-6.5h21.2V270.9z"/>
		<path class="st22" d="M401.2,171.1c0,48.4,36.2,92.6,81,92.6s81-41.7,81-92.6c0-36.9-0.2-91.9-45.4-91.9
			c-30.5-1.4-35.7,3.1-35.7,3.1s-7.6,3.1-40.5,6.5C407.7,92.1,401.2,134.2,401.2,171.1z"/>
		<path class="st9" d="M454.8,162.3c0,0,2.5-11.7-7.7-11.7c-9.5,0-7,11.7-7,11.7"/>
		<circle class="st10" cx="447.9" cy="153.7" r="4"/>
		<path class="st9" d="M527.1,162.3c0,0,2.5-11.7-7.7-11.7c-9.5,0-7,11.7-7,11.7"/>
		<circle class="st10" cx="519.9" cy="153.7" r="4"/>
		<path class="st9" d="M476.1,194.8c0,0,1.2,5.5,8.9,5.5s8.1-5.5,8.1-5.5"/>
		<path class="st2" d="M412.9,221.3"/>
		<path class="st23" d="M521.1,92.6c0,0,27.5-1,35.2,15.4c0,0-14.7-19.7-14.7-22.9c-13.7-1.2-22.3-9.5-22.3-9.5L521.1,92.6z"/>
		<path class="st23" d="M420.9,67.3c3.7-1.8-0.9-11.6,9.7-15.7s17.6,0.9,20.9,2.8c3.3,1.8,13.4-3.2,18-6s7.4-3.2,10.6,0
			c3.2,3.2,8.8,2.3,16.6,2.3s12.5,5.1,14.1,7.4c1.6,2.3,1.6,4.6,12.6,7.9c11,3.2,12.1,15.3,9,21.7c-3.1,6.5-14.5,9.7-20.4,9.2
			c-5.9-0.5-18.2,1.7-23,5.7c-4.8,3.9-15-1-20.1,5.9c-5.1,6.9-5.5,9.7-13.5,10.6s-11.9,3.2-15.7,8.3c-3.7,5.1-10.1,7.9-17,10.2
			c-6.8,2.3-9.6,5.3-11.7,13.8c-3,12.5-15.6,18.9-9.2,16.2l-12.7-3.5l6.7-61.9L420.9,67.3z"/>
		<path class="st2" d="M414.9,221.3c-21.3-39.5-10.1-70.1-10.1-70.1c-6.4,2.7-14.6,5.2-14.6,5.2s17.9-5.8,20.9-18.4
			c2-8.4,4.8-11.4,11.7-13.8c6.8-2.3,13.2-5.1,17-10.2c3.7-5.1,7.7-7.4,15.7-8.3s8.4-3.7,13.5-10.6c5.1-6.9,15.3-2,20.1-5.9
			c4.8-3.9,17.1-6.1,23-5.7c5.9,0.5,17.3-2.8,20.4-9.2c3.1-6.5,2-18.5-9-21.7c-11-3.2-11-5.5-12.6-7.9c-1.6-2.3-6.2-7.4-14.1-7.4
			s-13.4,0.9-16.6-2.3s-6-2.8-10.6,0s-14.7,7.9-18,6c-3.3-1.8-10.2-6.9-20.9-2.8s-6,13.9-9.7,15.7c-3.7,1.8-11.1-8.3-17.1-3.7
			s-3.6,15.3-9.4,23.1c-5.8,7.9-13.7-8.8-20.6-2.8s3.2,15.3,0,24s-17.1,9.2-20.8,18s8.8,10.5,6.5,21c-2.3,10.5-15.3,7.6-15.3,16.2
			s11.6,6.3,10.6,14.8c-0.9,8.6-15.3,9.5-15.3,20.6s18.5,5.5,16.2,15.5c-2.3,9.9-16.6,4.9-16.2,14.8c0.5,9.9,11.1,7.1,11.1,17.8
			c0,10.6-14.8,8.1-14.8,15.4c0,7.3,9.7,4.8,9.7,15.5s-10.2,12.5-9.7,21.1c0.5,8.6,13.9-2.5,15.7,7.2c1.8,9.7-5.5,13.5-5.5,19.7
			c0,6.2,9.7-2.1,16.2,3.9c6.5,6-1.2,10.6,2.8,15.8c3.1,4,11.5,5.7,15.3-0.9"/>
		<path class="st9" d="M493.1,243.3c0,0-1.2-5.5-8.9-5.5c-7.7,0-8.1,5.5-8.1,5.5"/>
		<path class="st9" d="M465.9,224.3c0,0,5,5.5,19.1,5.5c13.2,0,21-5.5,21-5.5"/>
		<line class="st9" x1="484.6" y1="164.1" x2="484.6" y2="189.2"/>
		<ellipse class="st24" cx="529" cy="201.2" rx="17" ry="9"/>
		<ellipse class="st24" cx="439.8" cy="201.2" rx="17" ry="9"/>
		<line class="st25" x1="447.4" y1="149.5" x2="447.4" y2="141.4"/>
		<line class="st25" x1="442.1" y1="152.4" x2="436" y2="146.2"/>
		<line class="st25" x1="453.7" y1="152.4" x2="459.9" y2="146.2"/>
		<line class="st25" x1="519.3" y1="149.5" x2="519.3" y2="141.4"/>
		<line class="st25" x1="513.9" y1="152.4" x2="507.8" y2="146.2"/>
		<line class="st25" x1="525.5" y1="152.4" x2="531.7" y2="146.2"/>
		<path class="st9" d="M538.5,137.4c0,0-7.5-8-18.4-8.7"/>
		<path class="st9" d="M427.6,137.4c0,0,7.5-8,18.4-8.7"/>
		<path class="st23" d="M413.8,215.1c0,0,11.4,25.5,35.8,38.4c29,15.4,53.7,7,69.1-1.8c15.4-8.8,27.2-23,31.8-36.6
			c0,0-23.7,39.9-67,39.9S413.8,215.1,413.8,215.1z"/>
		<path class="st26" d="M396,303.3c0,0-19.5-1.7-19-13.8c0.5-12.1,19-6.1,19-24.1c0-16.8-20.3-6.3-21.2-21.5
			c-0.9-15.3,18.3-5.6,18.3-25.8"/>
		<path class="st26" d="M567.3,291.4c0,0,19.5-1.7,19-13.8c-0.5-12.1-19-6.1-19-24.1c0-16.8,20.3-6.3,21.2-21.5
			c0.9-15.3-18.3-5.6-18.3-25.8"/>
		<path class="st26" d="M387.2,146.8c0,0-14.9-12.6-7.6-22.3s19,6,29.4-8.7c9.6-13.8-13-16.8-4.9-29.8c8-13,18.2,6,29.8-10.5"/>
		<path class="st26" d="M417.7,251c0,0-10.4,6.3-7.5,13.9c4.1,10.5,12.3-1.8,19.1,10.7c5.4,10-6.6,12.5-6.6,12.5"/>
		<path class="st26" d="M498.8,49.6c0,0-11.2-8.2-16.8-3.6c-7.8,6.4-2,11.7-10.9,19.5c-8.4,7.4-19.2,0-19.2,0"/>
		<path class="st26" d="M583,129.3c0,0-12.5,5.9-11.2,13.1c1.9,9.9,9.4,7.4,12.1,18.8c2.5,10.8-9.1,16.9-9.1,16.9"/>
		<path class="st26" d="M373.2,166.3c0,0,12.2,6.1,9.1,13c-4.6,10.2-12.5,0.5-15.4,11.4c-2.7,10.1,8.1,10.2,8.1,10.2"/>
		<path class="st2" d="M555.7,106.3c0,0-4.5-12.7-15.5-22.5c-11.8,0.5-12.7-4.3-12.7-4.3s5.5-1.7,6.4-10.7"/>
		<path class="st27" d="M533.8,75.6c0,0,2.1-3.8,1.8-6.9c0,0,3.6-1.1,6.3-3.2c0,0,17.3,18.1,17.9,33.9c0,0-6.9-17.6-19.5-17.5
			C531,80.1,533.8,75.6,533.8,75.6z"/>
		<path class="st2" d="M448.8,316.9"/>
		<path class="st28" d="M449.6,294.4c0,0-9.2,0.7-10.6,10.2"/>
		<path class="st3" d="M450.9,398.8"/>
		<g>
			<path class="st22" d="M446.2,368c-0.9-0.6,0.7-28,0.7-28h-20.6l1.4,27.8c0,0-5.1,5-5.2,8.8c-0.1,2.8,1.3,6,3.2,8.1
				c3.3,3.7,19.6,3.6,20.9-1c0,0-2.2,2.5,2.4,4.7c7.2,1.7,4.2-10.9,2.8-13.5C450.3,372.5,451.1,372.7,446.2,368z"/>
			<path class="st22" d="M445.5,386.2"/>
			<path class="st22" d="M441.9,379.8"/>
			<path class="st22" d="M448.8,382.2"/>
			<path class="st29" d="M445.5,377.2c0,0.1,2.8,4.2,0.4,8"/>
			<line class="st29" x1="439.7" y1="384.5" x2="439.5" y2="382.5"/>
			<line class="st29" x1="431.8" y1="384.5" x2="431.5" y2="382.5"/>
		</g>
		<path class="st7" d="M446.2,404.4"/>
		<path class="st7" d="M441.3,395.5"/>
		<path class="st3" d="M450.9,398.8"/>
		<path class="st3" d="M450.2,404.4"/>
		<path class="st3" d="M447.4,393.8"/>
		<polygon class="st4" points="428.8,341.7 444.3,341.7 444.1,346.2 429,346.2 		"/>
		<path class="st30" d="M421.7,441.6h50v-17.4h-35.4c-8,0-14.6,6.6-14.6,14.6V441.6z"/>
		<path class="st29" d="M441.2,424.3c0,0,1.9,8.7,11.9,8.7c10,0,18.6,0,18.6,0v-8.7H441.2z"/>
		<path class="st23" d="M443.6,426h26.3v3.9C469.9,429.8,457.9,429.9,443.6,426z"/>
		<g>
			<path class="st31" d="M454.6,284.3C454.6,284.3,454.6,284.3,454.6,284.3C455,284.3,454.6,284.3,454.6,284.3z"/>
			<path class="st31" d="M538.2,312.6c-0.5-13.2-5.6-22.9-16.8-25.4c-8.9-2-11.3-2.6-11.9-2.8c-0.2,1-4,16.8-27.4,16.3
				c-23.4,0.6-27.2-15.3-27.4-16.3c-0.6,0.2-3.1,0.8-11.9,2.8c-11.2,2.5-16.3,12.3-16.8,25.4c-0.3,8.6-1.2,27.4-1.2,27.4h23.5
				l0.5-21.1c0,0,0.8,14.5,5.3,31.6c3.1,11.8-2.4,22.6-2.4,22.6H482h30.4c0,0-5.4-10.9-2.4-22.6c4.5-17.2,5.3-31.6,5.3-31.6
				l0.5,21.1h23.5C539.4,340,538.5,321.2,538.2,312.6z"/>
			<path class="st31" d="M509.5,284.4C509.5,284.3,509.5,284.3,509.5,284.4C509.5,284.3,509.1,284.3,509.5,284.4z"/>
		</g>
		<path class="st32" d="M475.2,326.4c-2,2.7-4.9,4.8-8.5,5.6c-2.4,0.6-4.7,0.5-6.9,0c-5.2-1.3-9.5-5.3-10.8-10.9
			c-0.6-2.4,0.2-7.4,1.5-9.2"/>
		<path class="st32" d="M488.9,326.4c2,2.7,4.9,4.8,8.5,5.6c2.4,0.6,4.7,0.5,6.9,0c5.2-1.3,9.5-5.3,10.8-10.9
			c0.6-2.4-0.2-7.4-1.5-9.2"/>
		<path class="st2" d="M515.3,316.9"/>
		<path class="st28" d="M514.5,294.4c0,0,9.2,0.7,10.6,10.2"/>
		<path class="st3" d="M513.2,398.8"/>
		<g>
			<path class="st22" d="M517.9,368c0.9-0.6-0.7-28-0.7-28h20.6l-1.4,27.8c0,0,5.1,5,5.2,8.8c0.1,2.8-1.3,6-3.2,8.1
				c-3.3,3.7-19.6,3.6-20.9-1c0,0,2.2,2.5-2.4,4.7c-7.2,1.7-4.2-10.9-2.8-13.5C513.8,372.5,513,372.7,517.9,368z"/>
			<path class="st22" d="M518.6,386.2"/>
			<path class="st22" d="M522.1,379.8"/>
			<path class="st22" d="M515.2,382.2"/>
			<path class="st29" d="M518.6,377.2c0,0.1-2.8,4.2-0.4,8"/>
			<line class="st29" x1="524.4" y1="384.5" x2="524.6" y2="382.5"/>
			<line class="st29" x1="532.3" y1="384.5" x2="532.6" y2="382.5"/>
		</g>
		<path class="st7" d="M517.9,404.4"/>
		<path class="st7" d="M522.8,395.5"/>
		<path class="st3" d="M513.2,398.8"/>
		<path class="st3" d="M513.9,404.4"/>
		<path class="st3" d="M516.7,393.8"/>
		<polygon class="st4" points="535.3,341.7 519.8,341.7 520,346.2 535.1,346.2 		"/>
		<path class="st30" d="M542.4,441.6h-50v-17.4h35.4c8,0,14.6,6.6,14.6,14.6V441.6z"/>
		<path class="st29" d="M522.9,424.3c0,0-1.9,8.7-11.9,8.7c-10,0-18.6,0-18.6,0v-8.7H522.9z"/>
		<path class="st23" d="M520.4,426h-26.3v3.9C494.1,429.8,506.2,429.9,520.4,426z"/>
	</g>
</g>
</svg>
