<?xml version="1.0" encoding="utf-8"?>
<!-- Generator: Adobe Illustrator 19.2.1, SVG Export Plug-In . SVG Version: 6.00 Build 0)  -->
<svg version="1.1" id="Capa_1" xmlns="http://www.w3.org/2000/svg" xmlns:xlink="http://www.w3.org/1999/xlink" x="0px" y="0px"
	 viewBox="0 0 48 48" style="enable-background:new 0 0 48 48;" xml:space="preserve">
<style type="text/css">
	.st0{fill:#3C545F;}
</style>
<g>
	<g>
		<g>
			<path class="st0" d="M24,0.5c-5.2,0.2-9.3,1.8-13.7,4.4C8.4,6,7.2,8.7,6.1,10.6c-1.9,3.3-3.3,6.1-4.1,9.8
				c-1.3,6.3,0.6,12.9,4.2,18c4.3,6.2,8.5,8.4,15.9,9.1c6,0.6,13.2-3,17.6-6.8c5.6-4.9,6.7-10.9,6.6-18.1c0-5.5-3-11.6-6.5-15.6
				C35.7,2.4,30.1,0.5,24,0.5c-0.8,0-0.8,1.2,0,1.3c5.5,0,10,1.6,14,5.3c3.5,3.3,5.2,8.2,6.8,12.7c2.1,6.1-0.6,14.7-4.9,19.1
				s-11.7,7.6-17.8,7.4C8.6,46,1.1,31.5,3.6,19.2C5.7,8.9,13.8,2.2,24,1.8C24.8,1.8,24.8,0.5,24,0.5L24,0.5z"/>
		</g>
	</g>
	<g>
		<g>
			<path class="st0" d="M16.2,11.1c0.7,5.2,1.2,10.5,1.5,15.7c0.2,3.9-0.1,8,1,11.8c0.1,0.4,0.6,0.6,0.9,0.4
				c6.6-4.5,12.9-9.5,18.8-14.9c0.3-0.3,0.2-0.8-0.1-1c-7-4-14.4-7.6-20.9-12.3c-0.7-0.5-1.3,0.6-0.6,1.1c4.1,3,8.7,5.3,13,7.8
				c0.8,0.4,7.5,3.7,6.4,4.8c-2.3,2.1-4.6,4-7,5.9c-2.3,1.9-4.8,3.7-7.2,5.4c-4,2.8-2.8-2.3-2.9-5.1c-0.2-6.6-0.8-13.1-1.6-19.7
				C17.3,10.3,16.1,10.3,16.2,11.1L16.2,11.1z"/>
		</g>
	</g>
</g>
</svg>
