<?xml version="1.0" encoding="utf-8"?>
<!-- Generator: Adobe Illustrator 19.2.1, SVG Export Plug-In . SVG Version: 6.00 Build 0)  -->
<svg version="1.1" id="Capa_1" xmlns="http://www.w3.org/2000/svg" xmlns:xlink="http://www.w3.org/1999/xlink" x="0px" y="0px"
	 viewBox="0 0 48 48" style="enable-background:new 0 0 48 48;" xml:space="preserve">
<style type="text/css">
	.st0{fill:#F5F7FA;}
</style>
<g>
	<g>
		<g>
			<path class="st0" d="M1,3.6c0,5.8,0,11.5,0.1,17.3c0,4.4-0.7,9.9,0.9,14.1c0.6,1.5,5.2,1.2,6.3,1.3c5.5,0.3,11.1,0.4,16.7,0.4
				s11.2-0.3,16.8-0.9c2.2-0.3,4.5,0.2,5.2-2.2c0.4-1.6-0.1-4.2-0.2-5.9c-0.1-3.2-0.2-6.3-0.3-9.5s-0.2-6.3-0.3-9.5
				c-0.1-2,0.3-4.6-0.4-6.5c-0.1-0.3-0.3-0.4-0.6-0.5C38.9,1.1,32.1,2,25.8,2.1c-8,0.1-16,0.2-24,0.3C1,2.4,1,3.7,1.9,3.7
				c12-0.2,24-0.3,35.9-0.5c2.3,0,4.7-0.1,7-0.3c-0.1,0,0.2,8.7,0.3,9.5c0.2,6.3,0.4,12.7,0.6,19c0.1,4.2-4.5,3.1-7.6,3.4
				s-6.2,0.4-9.3,0.5c-5.6,0.1-11.3-0.1-16.9-0.2c-2.3-0.1-8.7,0.5-9.2-3c-0.4-3.1-0.3-6.2-0.3-9.3c0-6.4-0.1-12.8-0.1-19.2
				C2.3,2.8,1,2.8,1,3.6L1,3.6z"/>
		</g>
	</g>
	<g>
		<g>
			<path class="st0" d="M33.6,28.9c-3.8,2.4-6.7,4.8-11.7,3.4c-5.5-1.6-6.9-10.1-4.5-14.8c2.6-5,10.8-5.2,14.5-1.8
				c2.3,2.1,5.4,11,1.5,13.1c-0.7,0.4-0.1,1.5,0.6,1.1c4.5-2.4,1.7-10.9-0.5-14.1c-3.2-4.6-10.6-4.7-14.8-1.5
				C14,18.1,14,26.1,17.3,31c1.3,2,5.2,3.2,7.4,3.2c3.8,0.1,6.5-2.2,9.6-4.2C34.9,29.6,34.3,28.5,33.6,28.9L33.6,28.9z"/>
		</g>
	</g>
	<g>
		<g>
			<path class="st0" d="M33.6,30c1.4,2,3,3.8,4.9,5.3c2.3,1.8,5,3,6.5,5.6c0.4,0.7,1.5,0.1,1.1-0.6c-1.1-1.9-2.7-3.2-4.5-4.4
				c-2.7-1.8-5-3.8-6.9-6.6C34.3,28.7,33.2,29.4,33.6,30L33.6,30z"/>
		</g>
	</g>
	<g>
		<g>
			<path class="st0" d="M24.2,17c-0.1,1.1,0,2.1,0.3,3.2c0.4,1.3,0,2.5,0.1,3.9c0.1,0.8,1.3,0.8,1.3,0C25.8,23,26.2,22,26,20.9
				c-0.2-1.3-0.6-2.5-0.5-3.9C25.5,16.2,24.2,16.2,24.2,17L24.2,17z"/>
		</g>
	</g>
	<g>
		<g>
			<path class="st0" d="M24.3,26.2c0,0.1,0,0.3,0,0.4c0,0.8,1.3,0.8,1.3,0c0-0.1,0-0.3,0-0.4C25.5,25.4,24.3,25.4,24.3,26.2
				L24.3,26.2z"/>
		</g>
	</g>
	<g>
		<g>
			<path class="st0" d="M23.3,36.3c-0.1,2.7,0,5.4,0.1,8.1c0,0.8,1.3,0.8,1.3,0c-0.1-2.7-0.2-5.4-0.1-8.1
				C24.6,35.5,23.4,35.5,23.3,36.3L23.3,36.3z"/>
		</g>
	</g>
	<g>
		<g>
			<path class="st0" d="M15.2,46.3c5.7-0.3,11.4-0.5,17.1-0.6c0.8,0,0.8-1.3,0-1.3c-5.7,0.1-11.4,0.3-17.1,0.6
				C14.4,45.1,14.4,46.4,15.2,46.3L15.2,46.3z"/>
		</g>
	</g>
</g>
</svg>
